<?xml version="1.0" encoding="utf-8"?>
<!-- Generator: Adobe Illustrator 22.0.1, SVG Export Plug-In . SVG Version: 6.00 Build 0)  -->
<svg version="1.1" id="Livello_1" xmlns="http://www.w3.org/2000/svg" xmlns:xlink="http://www.w3.org/1999/xlink" x="0px" y="0px"
	 viewBox="0 0 595.3 841.9" style="enable-background:new 0 0 595.3 841.9;" xml:space="preserve">
<style type="text/css">
	.st0{fill:none;stroke:#FFFFFF;stroke-width:15;stroke-miterlimit:10;}
	.st1{fill:#FFFFFF;}
</style>
<g>
	<path class="st0" d="M463.9,505.4l-122-243.5c-8.2-18.5-20-28.4-32.8-30.3c-19.5-4.9-45.9,7.3-55.7,30.3l-122,243.5
		c-23.5,46.8,10.5,102,62.9,102.3c38.6,0.2,73.7-26.8,103.4-49.4c29.7,22.6,64.7,49.7,103.4,49.4
		C453.4,607.3,487.3,552.2,463.9,505.4z"/>
	<path class="st1" d="M397.1,440.1c-0.8-26.9-22.8-48.5-49.9-48.5c-27.1,0-49.1,21.6-49.9,48.5h0v19.1l-0.3,0
		c-2.2-19.2-18.6-34.2-38.4-34.2c-21,0-38.7,16.4-38.6,37.6h0v2.2v29v12.6c0,2.6,1.3,5,3.5,6.5l73.8,54.2l96.5-71.4
		c2.1-1.4,3.4-3.8,3.4-6.4v-4.1v-26.1L397.1,440.1L397.1,440.1z M284.4,539.3l-47-33.5c-2.2-1.6-3.6-4.2-3.6-6.9v-34.3h0
		c0.7-13.3,11.7-23.9,25.3-23.9s24.6,10.6,25.3,23.9h0V539.3z M383.8,480c0,2.7-1.3,5.2-3.5,6.8l-69.9,51.6v-96.2
		c0-19.1,16.4-34.6,36.7-34.6s36.7,15.5,36.7,34.6V480z"/>
</g>
</svg>
